<svg id="LOGO" xmlns="http://www.w3.org/2000/svg" width="201" height="42.5" viewBox="0 0 201 42.5">
  <metadata><?xpacket begin="﻿" id="W5M0MpCehiHzreSzNTczkc9d"?>
<x:xmpmeta xmlns:x="adobe:ns:meta/" x:xmptk="Adobe XMP Core 5.6-c138 79.159824, 2016/09/14-01:09:01        ">
   <rdf:RDF xmlns:rdf="http://www.w3.org/1999/02/22-rdf-syntax-ns#">
      <rdf:Description rdf:about=""/>
   </rdf:RDF>
</x:xmpmeta>
                                                                                                    
                                                                                                    
                                                                                                    
                                                                                                    
                                                                                                    
                                                                                                    
                                                                                                    
                                                                                                    
                                                                                                    
                                                                                                    
                                                                                                    
                                                                                                    
                                                                                                    
                                                                                                    
                                                                                                    
                                                                                                    
                                                                                                    
                                                                                                    
                                                                                                    
                                                                                                    
                           
<?xpacket end="w"?></metadata>
<defs>
    <style>
      .cls-1, .cls-2 {
        fill: #07a550;
      }

      .cls-1 {
        fill-rule: evenodd;
      }

      .cls-2 {
        font-size: 16px;
        text-anchor: middle;
        font-family: "Arial Rounded MT Bold";
      }
    </style>
  </defs>
  <path id="Ellipse_1_copy" data-name="Ellipse 1 copy" class="cls-1" d="M126.348,7925.07a19.35,19.35,0,1,1-19.372,19.35A19.365,19.365,0,0,1,126.348,7925.07Zm-30.914,16.47s14.391,14.2,18.136,17.29-0.7-6.66-6.595-10.7-7.309-4.61-9.892-6.59C93.744,7938.98,95.434,7941.54,95.434,7941.54Zm19.784-12.35s-12.067-2.79-14.013-3.29-6.473-2.11-1.649-1.65,22.257,3.29,22.257,3.29Zm-4.121-5.76s7.378,2.45,9.067,3.29,3.3,1.65,3.3,1.65l8.243-2.47c0.066,0.03-7.809-1.85-12.747-2.65-4.569-.75-6.687-0.93-8.686-0.64S111.1,7923.43,111.1,7923.43Zm1.648,20.58s-7.933-4.5-9.892-5.76-2.428-.62-0.824.82,11.541,9.88,11.541,9.88Zm-16.486-10.7s10.553,7.75,17.311,11.53,14.838,0.98,14.838-9.06-10.717-14.82-10.717-14.82,9.068,6.94,9.068,14-5.174,9.05-9.068,9.05c-1.5,0-5.4-2.95-10.993-6.01A60.042,60.042,0,0,0,96.259,7933.31Zm51.932,9.06s-6.781-2.47-10.716-2.47-9.067,4.53-9.067,9.05,4,10.71,8.243,10.71,9.068-2.47,9.068-2.47a36.019,36.019,0,0,0-7.419-.83c-3.936,0-5.771-3.09-5.771-7.41s4.069-6.16,9.068-6.58a15.049,15.049,0,0,1,9.067,2.47Z" transform="translate(-95 -7922.5)"/>
  <text id="tenniswithd" class="cls-2" transform="translate(133.144 41.021) scale(1.551 1.558)">tenniswithd</text>
</svg>
